<svg xmlns="http://www.w3.org/2000/svg" id="_01_Icons_Line_trash-2" width="24" height="24" viewBox="0 0 24 24">
    <defs>
        <clipPath id="clip-path">
            <path id="_Icon_Сolor" d="M15 20H5a3 3 0 0 1-3-3V6H1a1 1 0 0 1 0-2h5V2.328A2.421 2.421 0 0 1 8.5 0h3A2.422 2.422 0 0 1 14 2.328V4h5a1 1 0 0 1 0 2h-1v11a3 3 0 0 1-3 3zM4 6v11a1 1 0 0 0 1 1h10a1 1 0 0 0 1-1V6zm4.5-4c-.286 0-.5.173-.5.328V4h4V2.328c0-.155-.214-.328-.5-.328zM13 15a1 1 0 0 1-1-1v-4a1 1 0 0 1 2 0v4a1 1 0 0 1-1 1zm-6 0a1 1 0 0 1-1-1v-4a1 1 0 0 1 2 0v4a1 1 0 0 1-1 1z" class="cls-1" transform="translate(2 2)"/>
        </clipPath>
        <style>
            .cls-1{fill:#d9534f}
        </style>
    </defs>
    <g id="Group_95">
        <path id="_Icon_Сolor-2" d="M15 20H5a3 3 0 0 1-3-3V6H1a1 1 0 0 1 0-2h5V2.328A2.421 2.421 0 0 1 8.5 0h3A2.422 2.422 0 0 1 14 2.328V4h5a1 1 0 0 1 0 2h-1v11a3 3 0 0 1-3 3zM4 6v11a1 1 0 0 0 1 1h10a1 1 0 0 0 1-1V6zm4.5-4c-.286 0-.5.173-.5.328V4h4V2.328c0-.155-.214-.328-.5-.328zM13 15a1 1 0 0 1-1-1v-4a1 1 0 0 1 2 0v4a1 1 0 0 1-1 1zm-6 0a1 1 0 0 1-1-1v-4a1 1 0 0 1 2 0v4a1 1 0 0 1-1 1z" class="cls-1" transform="translate(2 2)"/>
    </g>
</svg>
