<svg xmlns="http://www.w3.org/2000/svg" id="_01_Icons_Line_upload" width="30" height="30" viewBox="0 0 30 30">
    <defs>
        <clipPath id="clip-path">
            <path id="_Icon_Сolor" d="M9.625 21.647V10.824l-3.3 2.435a1.39 1.39 0 0 1-1.924-.27 1.338 1.338 0 0 1 .275-1.895l5.5-4.058a1.393 1.393 0 0 1 1.616-.024l5.5 3.806a1.338 1.338 0 0 1 .334 1.885 1.389 1.389 0 0 1-1.916.329l-3.338-2.31V21.647a1.375 1.375 0 0 1-2.75 0zM19.25 4.058V2.706H2.75v1.352a1.368 1.368 0 0 1-1.375 1.353A1.368 1.368 0 0 1 0 4.058V1.353A1.368 1.368 0 0 1 1.375 0h19.25A1.368 1.368 0 0 1 22 1.353v2.705a1.375 1.375 0 0 1-2.75 0z" class="cls-1"/>
        </clipPath>
        <style>
            .cls-1{fill:#18203a}
        </style>
    </defs>
    <g id="Group_18" transform="translate(4 4)">
        <path id="_Icon_Сolor-2" d="M9.625 21.647V10.824l-3.3 2.435a1.39 1.39 0 0 1-1.924-.27 1.338 1.338 0 0 1 .275-1.895l5.5-4.058a1.393 1.393 0 0 1 1.616-.024l5.5 3.806a1.338 1.338 0 0 1 .334 1.885 1.389 1.389 0 0 1-1.916.329l-3.338-2.31V21.647a1.375 1.375 0 0 1-2.75 0zM19.25 4.058V2.706H2.75v1.352a1.368 1.368 0 0 1-1.375 1.353A1.368 1.368 0 0 1 0 4.058V1.353A1.368 1.368 0 0 1 1.375 0h19.25A1.368 1.368 0 0 1 22 1.353v2.705a1.375 1.375 0 0 1-2.75 0z" class="cls-1"/>
    </g>
</svg>
